<?xml version="1.0" standalone="no"?>
<!DOCTYPE svg PUBLIC "-//W3C//DTD SVG 20010904//EN"
 "http://www.w3.org/TR/2001/REC-SVG-20010904/DTD/svg10.dtd">
<svg version="1.0" xmlns="http://www.w3.org/2000/svg"
 width="245.000000pt" height="245.000000pt" viewBox="0 0 245.000000 245.000000"
 preserveAspectRatio="xMidYMid meet">
<metadata>
Created by potrace 1.11, written by Peter Selinger 2001-2013
</metadata>
<g transform="translate(0.000000,245.000000) scale(0.100000,-0.100000)"
fill="#000000" stroke="none">
<path d="M1031 2433 c-162 -41 -282 -151 -297 -271 -3 -31 -8 -66 -10 -77 -3
-11 -7 -85 -10 -164 -6 -121 -4 -143 7 -136 8 5 11 4 6 0 -4 -5 -53 -9 -110
-11 -125 -2 -143 -6 -236 -51 -78 -37 -156 -106 -186 -163 -22 -43 -14 -95 21
-132 35 -36 55 -37 23 0 l-24 27 27 -24 c15 -13 25 -28 22 -32 -11 -19 196
-125 223 -115 9 4 11 2 7 -6 -5 -7 0 -9 14 -6 12 4 20 2 16 -3 -3 -5 1 -9 8
-10 7 0 22 -3 33 -6 11 -3 35 -6 53 -7 21 -1 32 -6 33 -16 7 -135 34 -241 74
-289 14 -16 40 -32 58 -36 58 -12 67 -16 67 -32 0 -34 22 -143 29 -139 3 2 7
-6 7 -18 4 -54 112 -187 205 -251 33 -23 46 -41 56 -74 15 -54 32 -72 153
-171 52 -42 121 -106 153 -140 47 -51 60 -61 70 -50 8 9 8 11 0 6 -6 -3 -29
16 -54 45 -39 47 -81 85 -223 203 -28 24 -42 42 -36 46 14 9 -29 115 -73 180
-37 55 -225 247 -248 253 -19 5 -27 48 -36 198 l-6 106 27 5 c14 3 26 4 26 3
0 -1 -5 -15 -10 -32 -14 -39 0 -77 49 -128 95 -99 121 -129 121 -140 0 -19 42
-53 75 -61 17 -4 75 -25 130 -47 80 -31 112 -39 158 -38 31 1 57 0 57 -2 0 -3
-12 -26 -27 -53 l-27 -49 28 18 28 18 -7 -53 c-3 -29 -8 -65 -11 -80 -5 -30
12 -46 29 -29 18 18 32 13 51 -20 18 -30 18 -31 -14 -90 -25 -47 -30 -67 -26
-101 2 -24 5 -58 5 -75 1 -18 4 -33 9 -33 4 0 6 21 6 47 -2 59 18 127 57 198
21 38 32 74 34 113 8 102 6 177 -4 204 -8 21 -6 29 9 43 25 23 83 143 76 160
-2 7 -1 15 4 17 17 6 37 177 37 323 l1 150 -9 -105 c-4 -58 -10 -114 -13 -125
-2 -11 -5 -27 -6 -35 0 -9 -7 -4 -16 13 -8 15 -19 27 -25 27 -6 0 -7 5 -4 10
4 6 3 9 -2 8 -14 -3 -53 13 -53 22 0 5 -20 9 -43 8 -24 0 -53 5 -65 11 -29 15
-75 14 -69 -1 2 -8 15 -12 30 -10 34 4 36 -14 3 -22 -27 -7 -70 6 -81 24 -11
17 4 80 19 80 8 0 19 7 27 16 10 12 5 12 -22 -3 -45 -25 -53 -79 -17 -113 l23
-22 -30 3 c-16 2 -40 -2 -52 -9 -12 -7 -28 -12 -35 -12 -24 0 -81 -67 -87
-103 l-6 -35 -44 21 c-30 14 -48 31 -57 53 -8 20 -24 36 -43 42 -32 11 -44 34
-81 142 -16 48 -22 80 -35 185 -1 11 -4 49 -5 85 -2 56 -4 60 -10 30 l-7 -35
-2 37 c-2 55 -1 56 249 73 47 4 109 8 139 11 44 3 184 10 391 18 34 1 35 -1
38 -36 3 -38 -5 -47 -24 -28 -5 5 -35 12 -66 14 -43 2 -58 0 -62 -11 -13 -32
-6 -34 75 -27 l80 7 -5 -42 c-2 -22 0 -41 4 -41 9 0 26 87 21 105 -1 6 1 6 5
2 5 -4 7 -24 5 -43 l-3 -35 26 26 c14 14 30 25 35 25 5 0 76 31 157 70 132 63
153 77 210 137 61 63 78 93 52 93 -6 0 -37 -24 -68 -54 -63 -61 -119 -92 -179
-102 -22 -4 -39 -9 -37 -13 2 -3 -19 -6 -47 -7 -29 0 -97 -4 -152 -8 -55 -5
-116 -8 -135 -8 -19 1 -41 -4 -49 -11 -8 -7 -12 -7 -9 -2 4 6 -11 10 -37 10
-24 0 -41 -3 -39 -7 3 -5 -7 -8 -23 -8 -19 0 -24 3 -14 9 9 6 5 9 -14 9 -20 0
-24 -3 -14 -10 9 -6 -24 -8 -95 -4 -101 5 -140 15 -122 33 4 4 11 1 15 -6 6
-8 19 -12 35 -9 14 3 26 1 26 -3 0 -5 24 -8 53 -8 51 2 51 2 12 8 l-40 6 45
18 c35 13 231 57 257 57 3 0 3 6 0 14 -4 9 1 17 11 19 13 4 12 5 -4 6 -22 1
-38 23 -27 35 4 3 26 6 50 6 24 0 43 2 43 5 0 3 -11 28 -25 55 -29 57 -95 221
-120 300 -35 109 -121 249 -153 251 -10 1 -3 6 15 11 26 9 36 7 60 -10 29 -21
34 -30 98 -162 20 -41 41 -79 47 -85 5 -5 -1 13 -15 40 -14 28 -42 85 -62 127
-46 99 -72 116 -152 98 -36 -8 -85 -9 -146 -4 -148 11 -153 11 -206 -3z m1166
-669 c-67 -62 -97 -80 -152 -89 l-40 -6 38 15 c48 18 99 52 156 105 25 22 47
38 50 35 3 -3 -20 -30 -52 -60z m-1782 -46 c-52 -29 -143 -94 -169 -122 l-28
-31 20 30 c29 44 155 134 187 134 6 0 1 -5 -10 -11z m782 -64 c-3 -3 -12 -4
-19 -1 -8 3 -5 6 6 6 11 1 17 -2 13 -5z m-487 -199 c0 -8 -4 -15 -10 -15 -5 0
-10 7 -10 15 0 8 5 15 10 15 6 0 10 -7 10 -15z m-10 -29 c0 -3 -4 -8 -10 -11
-5 -3 -10 -1 -10 4 0 6 5 11 10 11 6 0 10 -2 10 -4z m-370 -56 c8 -5 11 -10 5
-10 -5 0 -21 10 -35 21 -24 20 -5 13 30 -11z m490 15 c0 -7 6 -18 14 -24 8 -7
17 -35 21 -64 3 -29 9 -61 12 -72 6 -20 5 -20 -16 -1 -13 12 -21 31 -21 52 0
46 -17 87 -34 81 -20 -8 -27 3 -16 23 10 19 40 23 40 5z m-404 -63 c-5 -4 -66
26 -66 33 0 3 16 -3 35 -12 19 -9 33 -18 31 -21z m292 2 c2 -20 10 -49 18 -63
8 -14 13 -19 10 -10 -2 9 -8 37 -11 63 -6 40 -5 45 9 40 11 -4 16 -19 16 -50
0 -44 1 -46 59 -82 50 -31 61 -44 74 -82 14 -44 10 -59 -18 -60 -12 0 -52 35
-80 70 -19 23 -19 24 -1 10 14 -11 12 -3 -9 28 -15 23 -30 42 -32 42 -3 0 3
-12 13 -27 15 -24 15 -26 1 -15 -9 8 -30 41 -46 74 -24 47 -28 65 -20 79 13
26 15 25 17 -17z m924 -348 c-7 -46 -15 -52 -83 -54 -35 -2 -68 -7 -73 -11
-18 -15 -95 -3 -134 20 l-37 22 24 -26 25 -27 -32 11 c-20 7 -32 18 -32 29 0
18 23 44 31 35 13 -12 189 -24 189 -13 0 4 -20 9 -45 9 -25 1 -49 3 -55 4 -5
1 -26 3 -45 4 -19 0 -35 5 -35 11 0 9 59 14 216 16 l90 2 -4 -32z m-431 -37
c6 -13 6 -25 -1 -39 -12 -23 -16 -24 -26 -8 -4 6 -3 8 3 5 6 -4 14 0 17 9 9
22 8 26 -6 18 -7 -5 -8 -3 -3 7 8 12 6 12 -8 0 -15 -12 -17 -11 -17 12 0 30
24 28 41 -4z m-23 -584 c-3 -3 -9 2 -12 12 -6 14 -5 15 5 6 7 -7 10 -15 7 -18z"/>
<path d="M1584 985 c-10 -8 -30 -15 -44 -16 -22 -2 -22 -2 -4 -6 12 -2 37 5
55 16 19 12 29 21 23 21 -5 0 -19 -7 -30 -15z"/>
<path d="M1641 2123 c11 -24 22 -43 24 -43 8 0 -8 38 -26 60 -18 23 -18 22 2
-17z"/>
<path d="M1701 1983 c13 -35 25 -61 27 -58 5 5 -28 96 -40 110 -5 5 1 -18 13
-52z"/>
<path d="M1732 1900 c0 -8 6 -31 13 -50 7 -19 13 -28 13 -20 0 8 -6 31 -13 50
-7 19 -13 28 -13 20z"/>
<path d="M1985 1770 c-77 -42 -121 -60 -147 -60 -35 0 -37 2 -57 53 -11 28
-20 45 -20 37 0 -8 7 -33 17 -54 16 -35 23 -41 69 -51 50 -11 52 -11 138 32
104 52 147 81 140 94 -11 16 -28 10 -140 -51z"/>
<path d="M1631 1735 c3 -2 21 -6 42 -9 20 -2 42 -8 49 -12 10 -6 9 -3 -1 9 -9
11 -28 17 -54 17 -22 0 -38 -2 -36 -5z"/>
<path d="M1178 1543 c-35 -7 -76 -17 -93 -22 -28 -10 -27 -10 10 -5 22 3 78 8
125 10 122 6 133 8 137 21 6 16 -88 14 -179 -4z"/>
<path d="M1593 1502 c-49 -23 -47 -37 6 -40 25 -1 47 -7 49 -12 2 -6 11 -6 23
1 15 7 24 7 35 -2 11 -9 14 -8 14 8 0 46 -72 71 -127 45z m77 -17 c0 -8 -7
-15 -15 -15 -9 0 -12 6 -9 15 4 8 10 15 15 15 5 0 9 -7 9 -15z"/>
<path d="M1219 1486 c-29 -15 -112 -96 -98 -96 4 0 22 13 38 28 26 24 39 28
80 26 40 -2 49 0 44 12 -6 17 23 30 40 17 14 -12 47 -24 47 -19 0 3 -15 14
-34 25 -39 24 -80 27 -117 7z"/>
<path d="M1524 1447 c17 -42 45 -94 46 -86 0 10 -51 119 -56 119 -2 0 2 -15
10 -33z"/>
<path d="M1391 1456 c0 -11 -9 -29 -18 -40 -17 -20 -16 -20 6 0 14 13 21 29
18 40 -4 18 -5 18 -6 0z"/>
<path d="M1733 1395 c0 -33 2 -45 4 -27 2 18 2 45 0 60 -2 15 -4 0 -4 -33z"/>
<path d="M1603 1393 c9 -2 25 -2 35 0 9 3 1 5 -18 5 -19 0 -27 -2 -17 -5z"/>
<path d="M1108 1363 c7 -3 16 -2 19 1 4 3 -2 6 -13 5 -11 0 -14 -3 -6 -6z"/>
<path d="M1570 1341 c0 -6 4 -13 10 -16 6 -3 7 1 4 9 -7 18 -14 21 -14 7z"/>
<path d="M1640 1161 c0 -6 4 -13 10 -16 6 -3 7 1 4 9 -7 18 -14 21 -14 7z"/>
<path d="M1420 598 c-22 -24 -26 -38 -10 -38 6 0 10 5 10 12 0 6 7 20 17 30 9
10 13 18 10 18 -3 0 -15 -10 -27 -22z"/>
<path d="M1385 516 c-16 -7 -42 -12 -57 -11 -16 1 -28 -2 -28 -7 0 -14 59 -9
90 7 17 9 30 18 30 20 0 6 0 6 -35 -9z"/>
<path d="M1515 60 c3 -5 8 -10 11 -10 2 0 4 5 4 10 0 6 -5 10 -11 10 -5 0 -7
-4 -4 -10z"/>
</g>
</svg>
